<svg width="1200" height="630" viewBox="0 0 1200 630" fill="none" xmlns="http://www.w3.org/2000/svg">
  <rect width="1200" height="630" rx="0" fill="#07111F"/>
  <circle cx="1030" cy="70" r="180" fill="#14335C" fill-opacity="0.45"/>
  <circle cx="180" cy="560" r="220" fill="#103149" fill-opacity="0.35"/>
  <rect x="64" y="64" width="1072" height="502" rx="32" fill="#0D1728" stroke="#1E3457" stroke-width="2"/>
  <text x="92" y="156" fill="#22D3EE" font-family="Segoe UI, Microsoft YaHei, sans-serif" font-size="24" font-weight="700">STM32 TIMER TOOL</text>
  <text x="92" y="232" fill="#E5EEFB" font-family="Segoe UI, Microsoft YaHei, sans-serif" font-size="62" font-weight="700">STM32 定时器计算器</text>
  <text x="92" y="286" fill="#9FB0CC" font-family="Segoe UI, Microsoft YaHei, sans-serif" font-size="24">TIMxCLK · PSC / ARR · PWM 占空比 · Dead-Time · 反推与预览</text>

  <rect x="92" y="338" width="540" height="156" rx="24" fill="#091120" stroke="#1A2E4D"/>
  <text x="124" y="384" fill="#C7D6EC" font-family="Segoe UI, Microsoft YaHei, sans-serif" font-size="20">设计输入</text>
  <rect x="124" y="404" width="220" height="58" rx="16" fill="#0F1B33" stroke="#243B64"/>
  <rect x="372" y="404" width="220" height="58" rx="16" fill="#0F1B33" stroke="#243B64"/>
  <text x="144" y="440" fill="#E5EEFB" font-family="Segoe UI, Microsoft YaHei, sans-serif" font-size="22">TIMxCLK</text>
  <text x="392" y="440" fill="#E5EEFB" font-family="Segoe UI, Microsoft YaHei, sans-serif" font-size="22">PSC / ARR</text>

  <rect x="700" y="152" width="360" height="342" rx="28" fill="#0B1730" stroke="#27406E"/>
  <text x="732" y="202" fill="#C7D6EC" font-family="Segoe UI, Microsoft YaHei, sans-serif" font-size="20">实时结果</text>
  <rect x="732" y="224" width="296" height="68" rx="18" fill="#0F1B33" stroke="#243B64"/>
  <rect x="732" y="308" width="296" height="68" rx="18" fill="#0F1B33" stroke="#243B64"/>
  <rect x="732" y="392" width="296" height="68" rx="18" fill="#0F1B33" stroke="#243B64"/>
  <text x="760" y="265" fill="#60A5FA" font-family="Segoe UI, Microsoft YaHei, sans-serif" font-size="20">输出频率</text>
  <text x="760" y="349" fill="#22D3EE" font-family="Segoe UI, Microsoft YaHei, sans-serif" font-size="20">占空比 / 高电平</text>
  <text x="760" y="433" fill="#A78BFA" font-family="Segoe UI, Microsoft YaHei, sans-serif" font-size="20">死区时间 / 反推</text>

  <path d="M128 536H1052" stroke="#1E3457" stroke-width="2"/>
</svg>
